# xmcd CD database file
#
# Track frame offsets:
#	150
#	18057
#	30435
#	44310
#	59272
#	76777
#	90107
#	105310
#	121170
#	136872
#	149420
#	162927
#	177559
#	196487
#
# Disc length: 2787 seconds
#
# Revision: 1
# Processed by: cddbd v1.5.2PL0 Copyright (c) Steve Scherf et al.
# Submitted via: CDex 1.51
#
DISCID=a30ae10e
DTITLE=Sippie Wallace - Women Be Wise
DYEAR=1994
DGENRE=Blues
TTITLE0=Women Be Wise
TTITLE1=Trouble Everywhere I Roam
TTITLE2=Lonesome Hours Blues
TTITLE3=Special Delivery Blues
TTITLE4=Murder Gonna Be My Crime
TTITLE5=Gambler's Dream
TTITLE6=Caldonia Blues
TTITLE7=You Got To Know How
TTITLE8=Shorty George Blues
TTITLE9=I'm A Mighty Tight Woman
TTITLE10=Bedroom Blues
TTITLE11=Up The Country Blues
TTITLE12=Suitcase Blues
TTITLE13=You Don't Know My Mind
EXTD=YEAR: 1994
EXTT0=
EXTT1=
EXTT2=
EXTT3=
EXTT4=
EXTT5=
EXTT6=
EXTT7=
EXTT8=
EXTT9=
EXTT10=
EXTT11=
EXTT12=
EXTT13=
PLAYORDER=
